<svg xmlns="http://www.w3.org/2000/svg" width="647.225" height="326.024" viewBox="0 0 647.225 326.024">
  <path id="Union_40" data-name="Union 40" d="M208.01,318.95,25.907,213.814A52,52,0,0,1,6.874,142.781l.273-.472A52,52,0,0,1,78.18,123.275l182.1,105.137a52,52,0,0,1,19.033,71.033l-.273.472A51.975,51.975,0,0,1,208.01,318.95Zm176.473.227a51.761,51.761,0,0,1-19.414-19.261l-.272-.473A51.955,51.955,0,0,1,383.83,228.41l103-59.466,80.1,46.247a51.874,51.874,0,0,0,40.281,4.966L436.1,318.949a51.973,51.973,0,0,1-51.62.228ZM568.841,202.552,386.74,97.415a52,52,0,0,1-19.033-71.033l.273-.472A52,52,0,0,1,439.013,6.877l182.1,105.136a52,52,0,0,1,19.033,71.033l-.273.472a51.977,51.977,0,0,1-71.033,19.034Zm-408.649-45.67-80.1-46.246a51.872,51.872,0,0,0-40.282-4.967L210.92,6.878a51.94,51.94,0,0,1,71.032,19.034l.273.472a51.958,51.958,0,0,1-19.033,71.033Zm0,0h0Z" transform="translate(0.102 0.099)" fill="#fff"/>
</svg>
